<svg xmlns="http://www.w3.org/2000/svg" viewBox="0 0 512 512">
  <defs>
    <linearGradient id="background" x1="64" y1="48" x2="448" y2="464" gradientUnits="userSpaceOnUse">
      <stop stop-color="#22c55e"/>
      <stop offset="1" stop-color="#047857"/>
    </linearGradient>
  </defs>
  <rect width="512" height="512" rx="112" fill="url(#background)"/>
  <path d="M112 136c0-31 25-56 56-56h176c31 0 56 25 56 56v152c0 31-25 56-56 56H239l-83 73c-12 11-31 2-29-15l8-62c-14-10-23-27-23-46V136Z" fill="#f0fdf4"/>
  <path d="m256 119-63 94h39l-56 91h58v24h44v-24h58l-56-91h39l-63-94Z" fill="#15803d"/>
</svg>
